<?xml version="1.0" encoding="UTF-8"?>
<svg width="1024" height="1024" viewBox="0 0 1024 1024" xmlns="http://www.w3.org/2000/svg">
  <defs>
    <linearGradient id="bgGradient" x1="0" y1="0" x2="0" y2="1">
      <stop offset="0%" stop-color="#363a43"/>
      <stop offset="100%" stop-color="#13151a"/>
    </linearGradient>
    <radialGradient id="glowGradient" cx="50%" cy="28%" r="48%">
      <stop offset="0%" stop-color="#49505e" stop-opacity="0.38"/>
      <stop offset="100%" stop-color="#49505e" stop-opacity="0"/>
    </radialGradient>
    <linearGradient id="amberGradient" x1="0" y1="0" x2="1" y2="1">
      <stop offset="0%" stop-color="#ffdc70"/>
      <stop offset="100%" stop-color="#ffc638"/>
    </linearGradient>
    <clipPath id="tileClip">
      <rect x="46.08" y="46.08" width="931.84" height="931.84" rx="215.04" ry="215.04" />
    </clipPath>
  </defs>

  <g clip-path="url(#tileClip)">
    <rect width="1024" height="1024" fill="url(#bgGradient)" />
    <ellipse cx="512.00" cy="286.72" rx="491.52" ry="399.36" fill="url(#glowGradient)" />
    <ellipse cx="256.00" cy="112.64" rx="276.48" ry="194.56" fill="#ffffff" fill-opacity="0.08" />
  </g>

  <rect x="46.08" y="46.08" width="931.84" height="931.84" rx="215.04" ry="215.04" fill="none" stroke="#0b0d10" stroke-width="8" />

  <path d="M 296.84 508.37 A 235.52 235.52 0 0 1 727.16 508.37" fill="none" stroke="#f5f6f8" stroke-width="46" stroke-linecap="round" />
  <path d="M 359.70 501.43 A 183.71 183.71 0 0 1 664.30 501.43" fill="none" stroke="#ffffff" stroke-opacity="0.16" stroke-width="6" stroke-linecap="round" />
  <line x1="344.20" y1="490.98" x2="319.80" y2="474.52" stroke="#ffffff" stroke-opacity="0.36" stroke-width="14" stroke-linecap="round" /> <line x1="416.98" y1="425.45" x2="403.16" y2="399.46" stroke="#ffffff" stroke-opacity="0.36" stroke-width="14" stroke-linecap="round" /> <line x1="512.00" y1="401.76" x2="512.00" y2="372.32" stroke="#ffffff" stroke-opacity="0.36" stroke-width="20" stroke-linecap="round" /> <line x1="607.02" y1="425.45" x2="620.84" y2="399.46" stroke="#ffffff" stroke-opacity="0.36" stroke-width="14" stroke-linecap="round" /> <line x1="679.80" y1="490.98" x2="704.20" y2="474.52" stroke="#ffffff" stroke-opacity="0.36" stroke-width="14" stroke-linecap="round" />

  <line x1="474.88" y1="633.16" x2="653.05" y2="493.96"
        stroke="#f5f6f8" stroke-width="18" stroke-linecap="round" />
  <line x1="512.00" y1="604.16" x2="653.05" y2="493.96"
        stroke="#f5f6f8" stroke-width="13" stroke-linecap="round" />

  <circle cx="512.00" cy="604.16" r="42" fill="url(#amberGradient)" />
  <circle cx="512.00" cy="604.16" r="19" fill="#13151a" />

  <path d="M 686.82 194.56 A 81.92 81.92 0 1 1 686.82 276.48" fill="none" stroke="url(#amberGradient)" stroke-width="14" stroke-linecap="round" />
  <path d="M 723.35 242.07 L 751.21 269.93 L 797.08 214.22"
        fill="none" stroke="url(#amberGradient)" stroke-width="18" stroke-linecap="round" stroke-linejoin="round" />
</svg>
